<svg xmlns="http://www.w3.org/2000/svg" width="23.616" height="23.616" viewBox="0 0 23.616 23.616">
  <g id="icone-tv-azul" transform="translate(86.597 -863.932)">
    <path id="remote-control-tv-svgrepo-com" d="M8.572,0H1.978A1.943,1.943,0,0,0,0,1.978V19.123A1.943,1.943,0,0,0,1.978,21.1H8.572a1.943,1.943,0,0,0,1.978-1.978V1.978A1.943,1.943,0,0,0,8.572,0Zm-3.3,4.616a.661.661,0,0,1,.659.659.709.709,0,0,1-.659.659.709.709,0,0,1-.659-.659A.661.661,0,0,1,5.275,4.616Zm0,1.978a.661.661,0,0,1,.659.659.709.709,0,0,1-.659.659.709.709,0,0,1-.659-.659A.661.661,0,0,1,5.275,6.594Zm0,1.978a.661.661,0,0,1,.659.659.709.709,0,0,1-.659.659.709.709,0,0,1-.659-.659A.661.661,0,0,1,5.275,8.572Zm.659,5.275v.659a.623.623,0,0,1-.659.659.623.623,0,0,1-.659-.659v-.659a.623.623,0,0,1,.659-.659A.623.623,0,0,1,5.935,13.847ZM4.616,11.21a.623.623,0,0,1-.659.659H3.3a.659.659,0,1,1,0-1.319h.659A.623.623,0,0,1,4.616,11.21ZM3.3,2.638a.661.661,0,0,1,.659.659.709.709,0,0,1-.659.659A.709.709,0,0,1,2.638,3.3.661.661,0,0,1,3.3,2.638Zm0,1.978a.661.661,0,0,1,.659.659.709.709,0,0,1-.659.659.709.709,0,0,1-.659-.659A.661.661,0,0,1,3.3,4.616Zm0,1.978a.661.661,0,0,1,.659.659.709.709,0,0,1-.659.659.709.709,0,0,1-.659-.659A.661.661,0,0,1,3.3,6.594Zm0,1.978a.661.661,0,0,1,.659.659.709.709,0,0,1-.659.659.709.709,0,0,1-.659-.659A.661.661,0,0,1,3.3,8.572Zm.659,7.913H3.3a.659.659,0,0,1,0-1.319h.659a.659.659,0,0,1,0,1.319ZM5.935,17.8a.623.623,0,0,1-.659.659.623.623,0,0,1-.659-.659v-.659a.623.623,0,0,1,.659-.659.623.623,0,0,1,.659.659Zm1.319-1.319H6.594a.659.659,0,0,1,0-1.319h.659a.659.659,0,0,1,0,1.319Zm0-4.616H6.594a.659.659,0,1,1,0-1.319h.659a.659.659,0,1,1,0,1.319Zm0-1.978a.661.661,0,0,1-.659-.659.709.709,0,0,1,.659-.659.709.709,0,0,1,.659.659A.661.661,0,0,1,7.253,9.891Zm0-1.978a.661.661,0,0,1-.659-.659.709.709,0,0,1,.659-.659.709.709,0,0,1,.659.659A.661.661,0,0,1,7.253,7.913Zm0-1.978a.661.661,0,0,1-.659-.659.709.709,0,0,1,.659-.659.709.709,0,0,1,.659.659A.661.661,0,0,1,7.253,5.935Z" transform="translate(-71.676 865.168) rotate(45)" fill="#232f66"/>
    <path id="remote-control-svgrepo-com" d="M.41,0A.425.425,0,0,0,0,.437a.419.419,0,0,0,.423.41H.436A4.524,4.524,0,0,1,3.5,2.405,5.012,5.012,0,0,1,5.074,5.5a.423.423,0,1,0,.846,0,5.708,5.708,0,0,0-1.81-3.673A5.378,5.378,0,0,0,.41,0ZM.423,2.537a.423.423,0,1,0,0,.846A2.228,2.228,0,0,1,1.81,4.11,2.239,2.239,0,0,1,2.537,5.5a.423.423,0,1,0,.846,0,3.031,3.031,0,0,0-.965-2A3.031,3.031,0,0,0,.423,2.537Z" transform="translate(-68.9 863.932)" fill="#232f66"/>
  </g>
</svg>
