<svg xmlns="http://www.w3.org/2000/svg" width="27.353" height="23.233" viewBox="0 0 27.353 23.233">
  <g id="icone-camera-azul" transform="translate(-534 -453.831)">
    <path id="Path_204" data-name="Path 204" d="M557.339,471.581l-3.694,2.059-14.232-8.731-.878,1.6,6.144,3.755a2.53,2.53,0,0,0-.643,3.029,2.365,2.365,0,0,1-.862,1.621,2.863,2.863,0,0,1-1.713.77h-4.039v-.581h-.57v-3.486H534V482.08h2.851v-3.485h.57v-1.162h4.111a4.24,4.24,0,0,0,2.8-.949,5.455,5.455,0,0,0,1.44-1.84,2.357,2.357,0,0,0,2.948-1.915l5.86,3.589Z" transform="translate(0 -5.015)" fill="#232f66"/>
    <path id="Path_205" data-name="Path 205" d="M577.94,475.814l-1.526-.854.225-.4-1.079-.6-3.025,5.4,1.079.6.193-.344,1.526.855Z" transform="translate(-16.588 -8.69)" fill="#232f66"/>
    <path id="Path_206" data-name="Path 206" d="M564.775,463.863l-11.182-6.631-1.613,2.593-.921-.6,1.56-2.569-.8-.472-1.568,2.517-.961-.628,1.539-2.474-.783-.465-1.519,2.44-.961-.628,1.492-2.4-.7-.416a2.657,2.657,0,0,0-1.488-.285,1.791,1.791,0,0,0-1.442.717l-2.756,4.221,14.78,8.983Z" transform="translate(-4.074)" fill="#232f66"/>
  </g>
</svg>
