<svg xmlns="http://www.w3.org/2000/svg" width="9.959" height="13.947" viewBox="0 0 9.959 13.947">
  <g id="icone-limpar" transform="translate(-252.2 -175.2)">
    <path id="Caminho_17" data-name="Caminho 17" d="M310.983,362.1H304v8.982a.982.982,0,0,0,.985.979h6a.982.982,0,0,0,.987-.979V362.1h-.985Z" transform="translate(-50.806 -183.312)" fill="none"/>
    <path id="Caminho_18" data-name="Caminho 18" d="M282.064,279.409a.318.318,0,0,0-.326-.309h-8.511a.318.318,0,0,0-.326.309v.977a.318.318,0,0,0,.326.309h8.511a.318.318,0,0,0,.326-.309Z" transform="translate(-20.303 -101.906)" fill="none"/>
    <path id="Caminho_19" data-name="Caminho 19" d="M261.435,176.8h-2.048v-1.2a.4.4,0,0,0-.4-.4H255.4a.4.4,0,0,0-.4.4v1.2h-2.081a.716.716,0,0,0-.724.706v.977a.713.713,0,0,0,.6.695v8.6a1.382,1.382,0,0,0,1.384,1.378h6a1.382,1.382,0,0,0,1.384-1.378v-8.6a.712.712,0,0,0,.6-.695V177.5A.716.716,0,0,0,261.435,176.8ZM255.8,176h2.789v.8H255.8Zm-2.806,1.6h8.367v.8h-8.367Zm7.77,10.177a.585.585,0,0,1-.587.582h-6a.585.585,0,0,1-.587-.582v-8.584h7.171v8.584Z" transform="translate(0 0)" fill="#fff"/>
    <path id="Caminho_20" data-name="Caminho 20" d="M389.392,452.774a.4.4,0,0,0,.4-.4V446.4a.4.4,0,1,0-.8,0v5.977A.4.4,0,0,0,389.392,452.774Zm-1.992,0a.4.4,0,0,0,.4-.4V446.4a.4.4,0,1,0-.8,0v5.977A.4.4,0,0,0,387.4,452.774Zm3.985.013a.4.4,0,0,0,.4-.4v-5.977a.4.4,0,0,0-.8,0v5.977A.4.4,0,0,0,391.384,452.787Z" transform="translate(-132.212 -265.602)" fill="#fff"/>
  </g>
</svg>
