<svg xmlns="http://www.w3.org/2000/svg" width="7.618" height="9.145" viewBox="0 0 7.618 9.145">
  <g id="icone-pessoa-fisica" transform="translate(-42.768)">
    <path id="Caminho_48" data-name="Caminho 48" d="M50.187,312.454a3.779,3.779,0,0,0-1.794-1.669,3.169,3.169,0,0,1-3.635,0,3.778,3.778,0,0,0-1.793,1.669c-.448.8-.1,1.925.679,1.925h5.864C50.284,314.379,50.636,313.251,50.187,312.454Z" transform="translate(0 -305.234)" fill="#fff"/>
    <path id="Caminho_49" data-name="Caminho 49" d="M124.151,5.37a2.4,2.4,0,0,0,2.4-2.4V2.4a2.4,2.4,0,0,0-4.8,0v.574A2.4,2.4,0,0,0,124.151,5.37Z" transform="translate(-77.574)" fill="#fff"/>
  </g>
</svg>
