<svg xmlns="http://www.w3.org/2000/svg" width="18.377" height="23.967" viewBox="0 0 18.377 23.967">
  <g id="icone-telefonia-azul" transform="translate(-59.712 0.001)">
    <path id="Caminho_33" data-name="Caminho 33" d="M61.355,1.015c-1.647,1.068-1.97,4.406-1.349,7.127a24.577,24.577,0,0,0,3.25,7.638A25.524,25.524,0,0,0,68.9,21.862c2.231,1.677,5.411,2.743,7.058,1.675a8.34,8.34,0,0,0,2.126-2.28L77.2,19.893l-2.433-3.751c-.181-.279-1.315-.024-1.89.3a5.484,5.484,0,0,0-1.492,1.621c-.533.308-.979,0-1.911-.428-1.146-.527-2.434-2.165-3.459-3.649-.936-1.541-1.907-3.385-1.921-4.647-.012-1.026-.11-1.559.389-1.919a5.484,5.484,0,0,0,2.089-.7c.533-.393,1.228-1.324,1.047-1.6L65.189,1.367,64.3,0A8.341,8.341,0,0,0,61.355,1.015Z" transform="translate(0 0)" fill="#232f66"/>
  </g>
</svg>
