<svg xmlns="http://www.w3.org/2000/svg" width="23.616" height="23.616" viewBox="0 0 23.616 23.616">
  <g id="icone-tv-branco" transform="translate(86.597 -863.932)">
    <path id="remote-control-tv-svgrepo-com" d="M8.639,0H1.994A1.958,1.958,0,0,0,0,1.994V19.273a1.958,1.958,0,0,0,1.994,1.994H8.639a1.958,1.958,0,0,0,1.994-1.994V1.994A1.958,1.958,0,0,0,8.639,0ZM5.317,4.652a.666.666,0,0,1,.665.665.715.715,0,0,1-.665.665.715.715,0,0,1-.665-.665A.666.666,0,0,1,5.317,4.652Zm0,1.994a.666.666,0,0,1,.665.665.715.715,0,0,1-.665.665.715.715,0,0,1-.665-.665A.666.666,0,0,1,5.317,6.646Zm0,1.994a.666.666,0,0,1,.665.665.715.715,0,0,1-.665.665A.715.715,0,0,1,4.652,9.3.666.666,0,0,1,5.317,8.639Zm.665,5.317v.665a.628.628,0,0,1-.665.665.628.628,0,0,1-.665-.665v-.665a.628.628,0,0,1,.665-.665A.628.628,0,0,1,5.981,13.956ZM4.652,11.3a.628.628,0,0,1-.665.665H3.323a.665.665,0,0,1,0-1.329h.665A.628.628,0,0,1,4.652,11.3ZM3.323,2.658a.666.666,0,0,1,.665.665.715.715,0,0,1-.665.665.715.715,0,0,1-.665-.665A.666.666,0,0,1,3.323,2.658Zm0,1.994a.666.666,0,0,1,.665.665.715.715,0,0,1-.665.665.715.715,0,0,1-.665-.665A.666.666,0,0,1,3.323,4.652Zm0,1.994a.666.666,0,0,1,.665.665.715.715,0,0,1-.665.665.715.715,0,0,1-.665-.665A.666.666,0,0,1,3.323,6.646Zm0,1.994a.666.666,0,0,1,.665.665.715.715,0,0,1-.665.665A.715.715,0,0,1,2.658,9.3.666.666,0,0,1,3.323,8.639Zm.665,7.975H3.323a.665.665,0,0,1,0-1.329h.665a.665.665,0,0,1,0,1.329Zm1.994,1.329a.628.628,0,0,1-.665.665.628.628,0,0,1-.665-.665v-.665a.628.628,0,0,1,.665-.665.628.628,0,0,1,.665.665ZM7.31,16.614H6.646a.665.665,0,0,1,0-1.329H7.31a.665.665,0,0,1,0,1.329Zm0-4.652H6.646a.665.665,0,0,1,0-1.329H7.31a.665.665,0,1,1,0,1.329Zm0-1.994A.666.666,0,0,1,6.646,9.3a.715.715,0,0,1,.665-.665.715.715,0,0,1,.665.665A.666.666,0,0,1,7.31,9.969Zm0-1.994a.666.666,0,0,1-.665-.665.715.715,0,0,1,.665-.665.715.715,0,0,1,.665.665A.666.666,0,0,1,7.31,7.975Zm0-1.994a.666.666,0,0,1-.665-.665.715.715,0,0,1,.665-.665.715.715,0,0,1,.665.665A.666.666,0,0,1,7.31,5.981Z" transform="translate(-71.559 864.992) rotate(45)" fill="#fdfdfd"/>
    <path id="remote-control-svgrepo-com" d="M.352,0A.365.365,0,0,0,0,.375.359.359,0,0,0,.363.726H.374A3.882,3.882,0,0,1,3,2.064,4.3,4.3,0,0,1,4.353,4.717a.363.363,0,1,0,.726,0A4.9,4.9,0,0,0,3.526,1.565,4.615,4.615,0,0,0,.352,0ZM.363,2.177a.363.363,0,1,0,0,.726,1.912,1.912,0,0,1,1.19.624,1.921,1.921,0,0,1,.624,1.19.363.363,0,1,0,.726,0A2.6,2.6,0,0,0,2.075,3,2.6,2.6,0,0,0,.363,2.177Z" transform="translate(-68.059 863.932)" fill="#fdfdfd"/>
  </g>
</svg>
