<svg id="icone-pessoa-juridica" xmlns="http://www.w3.org/2000/svg" width="11" height="11" viewBox="0 0 11 11">
  <path id="company-small-24px" d="M7.323,4H.915A.918.918,0,0,0,0,4.915v8.238H8.238V4.915A.918.918,0,0,0,7.323,4ZM3.662,12.238V10.408h.915v1.831Zm3.662,0H5.492V9.95a.433.433,0,0,0-.458-.458H3.2a.433.433,0,0,0-.458.458v2.288H.915V4.915H7.323ZM3.662,6.746H2.746V5.831h.915Zm1.831,0H4.577V5.831h.915ZM3.662,8.577H2.746V7.662h.915Zm1.831,0H4.577V7.662h.915Z" transform="translate(1.373 -3.085)" fill="#fff"/>
  <rect id="Retângulo_222" data-name="Retângulo 222" width="11" height="11" fill="none" opacity="0"/>
</svg>
