<svg xmlns="http://www.w3.org/2000/svg" width="24.086" height="23.616" viewBox="0 0 24.086 23.616">
  <path id="icone-casa-branco" d="M1533.658,591.51a1.814,1.814,0,0,0-.7-1.442c-2.794-2.327-5.575-4.668-8.389-6.974a7.308,7.308,0,0,0-2.673-1.86h-.524a.114.114,0,0,1,0,.03,1.058,1.058,0,0,0-.435.045,1.767,1.767,0,0,0-.581.412l-.425.362-.016-.01c-1.026.8-2.015,1.643-3,2.489l-2.412,2-2.166,1.814-1.891,1.577a1.83,1.83,0,0,0-.864,1.389l.023.488v8.783q-.012,1.242-.023,2.484a1.828,1.828,0,0,0,.93,1.444,2.63,2.63,0,0,0,1.627.285h0c.054,0,.108.013.162.013q6.539,0,13.077,0c.079,0,.176.042.236-.049h0c.007-1.175.011-2.35.025-3.525,0-.164-.086-.173-.221-.172-.716.007-1.433.008-2.15.012h-9.486c-.2.013-.187-.109-.187-.235,0-.49-.008-.98-.013-1.471v-6.722a.586.586,0,0,1,.322-.6,1.585,1.585,0,0,0,.205-.186,14.486,14.486,0,0,0,1.306-1.1c.114-.023.173-.113.25-.178q.7-.588,1.4-1.182h0c.8-.633,1.586-1.283,2.346-1.957.761-.566,1.446-1.208,2.159-1.822.1.066.2.126.285.2q3.766,3.136,7.532,6.272a.6.6,0,0,1,.246.519c-.008,2.724,0,5.449-.01,8.173,0,.208.03.3.3.3,1.156-.014,2.311-.013,3.467,0,.241,0,.284-.076.283-.279C1533.657,597.725,1533.661,594.617,1533.658,591.51Z" transform="translate(-1509.578 -581.234)" fill="#fff"/>
</svg>
