<svg xmlns="http://www.w3.org/2000/svg" width="27.182" height="23.482" viewBox="0 0 27.182 23.482">
  <g id="icone-wifi-business-branco" transform="translate(-1.351 -2.25)">
    <path id="Caminho_34" data-name="Caminho 34" d="M12.76,12.064a1.6,1.6,0,1,0,1.6,1.6A1.6,1.6,0,0,0,12.76,12.064Zm-3.51,1.6a3.51,3.51,0,1,1,3.51,3.51A3.51,3.51,0,0,1,9.25,13.659Z" transform="translate(2.182 2.182)" fill="#fff" fill-rule="evenodd"/>
    <path id="Caminho_35" data-name="Caminho 35" d="M13.865,8.064A6.7,6.7,0,0,0,9.127,19.5a.957.957,0,1,1-1.354,1.354,8.614,8.614,0,1,1,12.183,0A.957.957,0,0,1,18.6,19.5,6.7,6.7,0,0,0,13.865,8.064Z" transform="translate(1.077 1.077)" fill="#fff" fill-rule="evenodd"/>
    <path id="Caminho_36" data-name="Caminho 36" d="M14.942,4.164A11.677,11.677,0,0,0,6.685,24.1a.957.957,0,0,1-1.354,1.354,13.591,13.591,0,1,1,19.221,0A.957.957,0,0,1,23.2,24.1,11.677,11.677,0,0,0,14.942,4.164Z" transform="translate(0 0)" fill="#fff" fill-rule="evenodd"/>
  </g>
</svg>
