<svg xmlns="http://www.w3.org/2000/svg" width="23.369" height="23.616" viewBox="0 0 23.369 23.616">
  <g id="icone-internet-azul" transform="translate(-0.65)">
    <path id="Caminho_32" data-name="Caminho 32" d="M4,20.305a11.349,11.349,0,0,0,3.825,2.436,13.678,13.678,0,0,0,4.929.875,15.45,15.45,0,0,0,5.5-.932c1.5-.552.209-3.35-.894-2.893a11.345,11.345,0,0,1-4.4.78,10.3,10.3,0,0,1-3.616-.609A7.873,7.873,0,0,1,6.587,18.25a7.8,7.8,0,0,1-1.789-2.7,9.49,9.49,0,0,1-.647-3.616,9.645,9.645,0,0,1,.628-3.521A8.034,8.034,0,0,1,6.53,5.633a7.937,7.937,0,0,1,2.7-1.846,9.068,9.068,0,0,1,3.521-.666,11.182,11.182,0,0,1,3.292.476,6.775,6.775,0,0,1,2.512,1.408,6.555,6.555,0,0,1,1.656,2.3,7.919,7.919,0,0,1,.59,3.2,8.448,8.448,0,0,1-.229,2,5.427,5.427,0,0,1-.609,1.541A3.03,3.03,0,0,1,19.09,15a1.788,1.788,0,0,1-1.446.266c-.571-.19-.457-.99-.419-1.465a15.71,15.71,0,0,1,.362-1.884c.209-1.028.438-2.036.647-3.045.114-.552.247-1.123.361-1.675A1.148,1.148,0,0,0,17.472,5.8h-.837a1.142,1.142,0,0,0-1.1.837c-.057.228-.114.419-.114.419C15,5.767,13.457,5.4,12.239,5.424a5.8,5.8,0,0,0-4.13,2c-.1.114-.209.228-.3.343a7.343,7.343,0,0,0-1.256,2.265,8.113,8.113,0,0,0-.457,2.683A7.325,7.325,0,0,0,6.416,14.9a5.3,5.3,0,0,0,.971,1.77,4.474,4.474,0,0,0,1.58,1.18,5.026,5.026,0,0,0,2.093.438,4.665,4.665,0,0,0,1.58-.266,5.8,5.8,0,0,0,1.237-.628,5.137,5.137,0,0,0,.761-.628,2.745,2.745,0,0,0,.495.666,3.189,3.189,0,0,0,2.436.856,6.132,6.132,0,0,0,2.474-.514,5.862,5.862,0,0,0,2.074-1.56A7.965,7.965,0,0,0,23.5,13.7a10.378,10.378,0,0,0,.514-3.387,10.157,10.157,0,0,0-.952-4.51,9.425,9.425,0,0,0-2.55-3.216A11,11,0,0,0,16.9.667,12.7,12.7,0,0,0,12.753,0a12.52,12.52,0,0,0-4.7.894A12.289,12.289,0,0,0,4.209,3.387,11.556,11.556,0,0,0,.65,11.837a12.329,12.329,0,0,0,.875,4.719A10.74,10.74,0,0,0,4,20.305Zm10.3-7.993a5.754,5.754,0,0,1-.59,1.465A3.438,3.438,0,0,1,12.7,14.862a2.368,2.368,0,0,1-1.408.4,1.579,1.579,0,0,1-.856-.21,1.643,1.643,0,0,1-.552-.59,2.776,2.776,0,0,1-.3-.837,4.7,4.7,0,0,1-.1-.837,6.033,6.033,0,0,1,.228-1.618,5,5,0,0,1,.647-1.446A3.708,3.708,0,0,1,11.364,8.7,2.1,2.1,0,0,1,12.6,8.335a1.81,1.81,0,0,1,.913.19,1.594,1.594,0,0,1,.552.514,2.591,2.591,0,0,1,.323.78,4.388,4.388,0,0,1,.114.99A7.3,7.3,0,0,1,14.294,12.313Z" transform="translate(0 0)" fill="#232f66"/>
  </g>
</svg>
