<svg xmlns="http://www.w3.org/2000/svg" width="27.353" height="23.233" viewBox="0 0 27.353 23.233">
  <g id="icone-camera-azul-claro" transform="translate(-534 -453.831)">
    <path id="Path_204" data-name="Path 204" d="M557.4,471.476l-3.7,2.027-14.27-8.593-.88,1.579,6.161,3.7a2.458,2.458,0,0,0-.645,2.982,2.315,2.315,0,0,1-.865,1.6,2.9,2.9,0,0,1-1.718.758h-4.05v-.572h-.572v-3.431H534v10.292h2.859v-3.431h.572v-1.143h4.122a4.3,4.3,0,0,0,2.81-.934,5.386,5.386,0,0,0,1.444-1.811,2.554,2.554,0,0,0,.509.079,2.492,2.492,0,0,0,2.447-1.963l5.876,3.532Z" transform="translate(0 -4.744)" fill="#00b1eb"/>
    <path id="Path_205" data-name="Path 205" d="M577.855,475.785l-1.5-.841.221-.39-1.062-.6-2.977,5.317,1.062.6.19-.339,1.5.842Z" transform="translate(-16.503 -8.62)" fill="#00b1eb"/>
    <path id="Path_206" data-name="Path 206" d="M564.427,463.7l-11.006-6.527-1.588,2.552-.906-.592,1.535-2.529-.784-.465-1.544,2.477-.946-.618,1.515-2.435-.771-.457-1.5,2.4-.946-.618,1.469-2.36-.69-.409a2.615,2.615,0,0,0-1.465-.281,1.762,1.762,0,0,0-1.42.706l-2.713,4.154,14.547,8.842Z" transform="translate(-3.715 0)" fill="#00b1eb"/>
  </g>
</svg>
