<svg xmlns="http://www.w3.org/2000/svg" width="24.599" height="23.724" viewBox="0 0 24.599 23.724">
  <g id="icone-combo-azul" transform="translate(0.008 -0.002)">
    <g id="Camada_1" data-name="Camada 1" transform="translate(-0.007 0.002)">
      <path id="Caminho_44" data-name="Caminho 44" d="M99.1,71.31c1.1.149,2.2.282,3.285.471.176.03.307.311.459.476-.214.128-.439.381-.64.363-1.105-.1-2.207-.257-3.314-.414a1.1,1.1,0,0,1-.527-.242.426.426,0,0,1-.073-.384.476.476,0,0,1,.3-.235,2.029,2.029,0,0,1,.5-.01Z" transform="translate(-81.989 -59.495)" fill="#232f66"/>
      <path id="Caminho_45" data-name="Caminho 45" d="M10.266,1.151a6.333,6.333,0,0,0-6.94-.22A6.331,6.331,0,0,0-.006,6.659a6.291,6.291,0,0,0,1.935,4.686,6.366,6.366,0,0,0,4.4,1.947c.52.02.939-.181.973-.595.031-.376-.378-.686-.842-.749a7.33,7.33,0,0,1-1.907-.388,4.97,4.97,0,0,1-3.178-4.1A5.085,5.085,0,0,1,3.98,2.063a5.02,5.02,0,0,1,5.337.048A5.113,5.113,0,0,1,11.923,6.6a1.969,1.969,0,0,1-1.014,1.885,1.2,1.2,0,0,1-1.44-.073c-.2-.186-.212-.645-.217-.981-.013-.8.093-1.614.028-2.411A1.5,1.5,0,0,0,7.665,3.562,3.583,3.583,0,0,0,3.985,8.3a2.83,2.83,0,0,0,.787,1.277,2.508,2.508,0,0,0,3.092.166,1.113,1.113,0,0,1,1.289-.023,1.872,1.872,0,0,0,.828.235A3.143,3.143,0,0,0,13.24,6.7,6.336,6.336,0,0,0,10.266,1.151ZM8.079,5.857Q8,7,7.882,8.14a.441.441,0,0,1-.23.3c-.419.166-.853.277-1.281.411-.777-.089-1.014-.3-1.176-1.115A2.25,2.25,0,0,1,7.111,4.892c.8-.053,1.014.154.959.964Z" transform="translate(0.007 -0.002)" fill="#232f66"/>
      <path id="Caminho_46" data-name="Caminho 46" d="M93.27,4.431c0-.828-.205-1.014-1.032-.9-.722.1-1.443.212-2.165.331-2.32.356-4.649.722-6.975,1.065a.806.806,0,0,0-.787.923v7.1c0,.63.177.842.777.915q4.614.562,9.23,1.107c.734.086.948-.128.948-.895V9.286Q93.271,6.853,93.27,4.431Zm-1.325,9.126c-.485-.041-.968-.068-1.445-.126-2.154-.255-4.308-.514-6.462-.8-.152-.02-.4-.235-.4-.363-.027-2.016-.018-4.033-.018-6.119l8.316-1.248Z" transform="translate(-68.671 -2.919)" fill="#232f66"/>
      <path id="Caminho_47" data-name="Caminho 47" d="M58.08,78.178a7.053,7.053,0,0,0-.628-1.089,2.5,2.5,0,0,0-3.565-1.037L53.1,74.616a2.078,2.078,0,0,0,1.491-2.527,6.53,6.53,0,0,0-.628-1.9,1.9,1.9,0,0,0-2.543-.862,4.439,4.439,0,0,0-2.7,5.285,10.391,10.391,0,0,0,2.419,4.854,5.468,5.468,0,0,0,3.063,1.874,4.039,4.039,0,0,0,3.082-.794A1.828,1.828,0,0,0,58.08,78.178Zm-1.387,1.3a7.528,7.528,0,0,1-.868.418,2.526,2.526,0,0,1-.888.331,1.543,1.543,0,0,1-.408-.031c-.141-.043-.355-.109-.611-.2a4.275,4.275,0,0,1-.459-.166,4.158,4.158,0,0,1-1.521-1.289,10.04,10.04,0,0,1-2.011-4.092,3.38,3.38,0,0,1,1.61-3.854c.762-.432,1.246-.27,1.528.553a8.084,8.084,0,0,1,.331,1.365.808.808,0,0,1-.55.91,3.612,3.612,0,0,0-.587.3.7.7,0,0,0-.353.89,20.237,20.237,0,0,0,1.251,2.416c.369.575.787.565,1.354.166a1.053,1.053,0,0,1,1.594.166,10.811,10.811,0,0,1,.789,1.115A.652.652,0,0,1,56.693,79.475Z" transform="translate(-40.565 -57.691)" fill="#232f66"/>
    </g>
  </g>
</svg>
