<svg id="Camada_1" data-name="Camada 1" xmlns="http://www.w3.org/2000/svg" viewBox="0 0 244 244"><defs><style>.cls-1{fill:#fff;}</style></defs><g id="Camada_2" data-name="Camada 2"><g id="Camada_1-2" data-name="Camada 1-2"><polygon class="cls-1" points="139.2 108.68 161.58 108.68 161.58 174.47 174.52 174.47 174.52 98.65 139.2 98.68 139.2 108.68"/><polygon class="cls-1" points="69.67 174.42 83.06 174.42 83.06 108.27 104.72 108.27 104.72 98.49 69.67 98.49 69.67 174.42"/><path class="cls-1" d="M76.05,86.85A8.93,8.93,0,0,0,84.88,78a8.8,8.8,0,1,0-8.83,8.85Z"/><path class="cls-1" d="M167.81,69.43a8.79,8.79,0,1,0,9,8.57h0A8.8,8.8,0,0,0,167.81,69.43Z"/></g></g></svg>